<svg width="132" height="265" viewBox="0 0 132 265" fill="none" xmlns="http://www.w3.org/2000/svg">
<path fill-rule="evenodd" clip-rule="evenodd" d="M0 0H132V166H0V0Z" fill="#4AF6CD"/>
<path d="M28.7382 129.997C28.7382 126.837 29.1982 124.057 30.1182 121.657C31.0382 119.217 32.4182 117.037 34.2582 115.117L40.1382 120.097C37.8582 122.977 36.7182 125.997 36.7182 129.157C36.7182 130.797 37.0382 132.057 37.6782 132.937C38.2782 133.777 39.1382 134.197 40.2582 134.197C41.0582 134.197 41.7182 133.977 42.2382 133.537C42.7582 133.097 43.2582 132.357 43.7382 131.317C44.2182 130.277 44.8182 128.637 45.5382 126.397C46.8982 122.117 48.6182 118.997 50.6982 117.037C52.7382 115.037 55.5782 114.037 59.2182 114.037C61.8582 114.037 64.1982 114.717 66.2382 116.077C68.2382 117.437 69.7982 119.417 70.9182 122.017C72.0382 124.577 72.5982 127.597 72.5982 131.077C72.5982 137.717 70.5782 143.137 66.5382 147.337L60.4782 141.877C63.1982 138.557 64.5582 135.097 64.5582 131.497C64.5582 129.617 64.1582 128.157 63.3582 127.117C62.5182 126.077 61.4182 125.557 60.0582 125.557C59.0982 125.557 58.3182 125.757 57.7182 126.157C57.0782 126.557 56.5182 127.277 56.0382 128.317C55.5182 129.317 54.9582 130.797 54.3582 132.757C52.8782 137.477 51.0982 140.797 49.0182 142.717C46.9382 144.637 44.3182 145.597 41.1582 145.597C38.6782 145.597 36.4982 144.937 34.6182 143.617C32.7382 142.257 31.2982 140.397 30.2982 138.037C29.2582 135.637 28.7382 132.957 28.7382 129.997ZM57.5382 76.592C60.4182 76.592 62.9982 77.232 65.2782 78.512C67.5582 79.752 69.3582 81.632 70.6782 84.152C71.9582 86.672 72.5982 89.752 72.5982 93.392C72.5982 98.912 71.2582 103.092 68.5782 105.932C65.8582 108.772 62.1782 110.192 57.5382 110.192H29.8182L29.8182 99.092H57.1782C59.6982 99.092 61.5582 98.652 62.7582 97.772C63.9182 96.852 64.4982 95.392 64.4982 93.392C64.4982 91.392 63.8982 89.952 62.6982 89.072C61.4982 88.192 59.6582 87.752 57.1782 87.752H29.8182V76.592H57.5382ZM56.1582 56.5843V59.6443H71.5182V70.7443H29.8182V56.2843C29.8182 50.4043 30.8782 46.0243 32.9982 43.1443C35.1182 40.2243 38.3782 38.7643 42.7782 38.7643C45.4182 38.7643 47.6182 39.3843 49.3782 40.6243C51.1382 41.8243 52.7182 43.7643 54.1182 46.4443L71.5182 36.0643V48.4243L56.1582 56.5843ZM48.5982 59.6443V55.9243C48.5982 52.0843 46.6582 50.1643 42.7782 50.1643C40.9782 50.1643 39.6582 50.7043 38.8182 51.7843C37.9782 52.8243 37.5582 54.4043 37.5582 56.5243L37.5582 59.6443H48.5982ZM71.5182 33.5373H29.8182V7.91728L37.6782 9.05728V22.4373H47.6982V10.6773H55.5582V22.4373H71.5182V33.5373Z" fill="white"/>
<path d="M28.7382 242.92C28.7382 237.36 30.4982 232.58 34.0182 228.58L39.7182 234.04C38.6382 235.56 37.8582 236.94 37.3782 238.18C36.8582 239.38 36.5982 240.76 36.5982 242.32C36.5982 245.32 37.7582 247.68 40.0782 249.4C42.3982 251.08 45.9382 251.92 50.6982 251.92C54.1782 251.92 56.9382 251.64 58.9782 251.08C60.9782 250.52 62.4182 249.68 63.2982 248.56C64.1782 247.4 64.6182 245.92 64.6182 244.12C64.6182 242.32 64.2382 240.68 63.4782 239.2H54.8982V243.94L47.2782 245.02V228.46H68.0382C69.4782 230.62 70.5982 233.06 71.3982 235.78C72.1982 238.5 72.5982 241.18 72.5982 243.82C72.5982 256.86 65.2782 263.38 50.6382 263.38C46.0782 263.38 42.1582 262.5 38.8782 260.74C35.5582 258.94 33.0382 256.5 31.3182 253.42C29.5982 250.34 28.7382 246.84 28.7382 242.92ZM28.7382 205.335C28.7382 199.295 30.6582 194.595 34.4982 191.235C38.3382 187.875 43.7182 186.195 50.6382 186.195C55.1582 186.195 59.0782 186.955 62.3982 188.475C65.6782 189.955 68.1982 192.135 69.9582 195.015C71.7182 197.895 72.5982 201.335 72.5982 205.335C72.5982 211.375 70.6782 216.075 66.8382 219.435C62.9982 222.755 57.5982 224.415 50.6382 224.415C46.1182 224.415 42.2182 223.675 38.9382 222.195C35.6582 220.675 33.1382 218.495 31.3782 215.655C29.6182 212.775 28.7382 209.335 28.7382 205.335ZM36.7182 205.335C36.7182 207.935 37.7982 209.855 39.9582 211.095C42.1182 212.295 45.6782 212.895 50.6382 212.895C55.5982 212.895 59.1782 212.275 61.3782 211.035C63.5382 209.795 64.6182 207.895 64.6182 205.335C64.6182 202.695 63.5382 200.775 61.3782 199.575C59.2182 198.375 55.6382 197.775 50.6382 197.775C45.6782 197.775 42.1182 198.375 39.9582 199.575C37.7982 200.775 36.7182 202.695 36.7182 205.335Z" fill="white"/>
<rect x="50.0535" y="175.724" width="20.0621" height="0.959315" transform="rotate(-90 50.0535 175.724)" fill="white"/>
</svg>
